<?xml version="1.0" encoding="UTF-8" standalone="no"?>
<svg viewBox="0 0 1765 652"
     preserveAspectRatio="xMidYMid meet"
     version="1.1"
     baseProfile="full"
     xmlns="http://www.w3.org/2000/svg"
     xmlns:xlink="http://www.w3.org/1999/xlink"
     xmlns:ev="http://www.w3.org/2001/xml-events"
     xml:space="preserve">
<title>design_1_imp</title>
<desc>Nlview schematic (SVG)</desc>
<clipPath id="clippingbbox">
<rect x="0" y="0" width="1765" height="652" />
</clipPath>
<g stroke="#102235"
   stroke-width="1"
   stroke-linecap="butt"
   stroke-linejoin="miter"
   stroke-miterlimit="4"
   stroke-dasharray="none"
   stroke-dashoffset="0"
   fill="none"
   font-family="Helvetica"
   font-style="normal"
   font-size="12"
   writing-mode="lr-tb"
   cursor="crosshair"
   clip-path="url(#clippingbbox)">
<path d="M0 0h1764v653h-1764z" stroke="none" fill="white" />
<path d="M1427 388h166l3 1l2 1l1 2l1 3v82l-1 3l-1 2l-2 1l-3 1h-166l-3 -1l-2 -1l-1 -2l-1 -3v-82l1 -3l1 -2l2 -1z" stroke="none" fill="#edf6fe" />
<text x="1510" y="386" fill="black" stroke-width="0" text-anchor="middle" dy="-1.6">Blink_0</text>
<text x="1510" y="486" fill="#41619f" stroke-width="0" text-anchor="middle" dy="9.6">Blink_v1_0</text>
<g stroke="black" stroke-width="3">
<path d="M1410 416h10" />
<text x="1422" y="416" fill="black" stroke-width="0" font-size="10" dy="3.66667">CLK</text>
<circle cx="1417" cy="436" r="3" />
<path d="M1410 436h4" />
<text x="1422" y="436" fill="black" stroke-width="0" font-size="10" dy="3.66667">RESET</text>
<path d="M1410 456h10" />
<text x="1422" y="456" fill="black" stroke-width="0" font-size="10" dy="3.66667">BUTTON</text>
</g>
<g stroke="black" stroke-width="5">
<path d="M1610 416h-10" />
<text x="1598" y="416" fill="black" stroke-width="0" font-size="10" text-anchor="end" dy="3.66667">RGB[2:0]</text>
</g>
<g stroke="black" stroke-width="3">
<path d="M1610 436h-10" />
<text x="1598" y="436" fill="black" stroke-width="0" font-size="10" text-anchor="end" dy="3.66667">BUZZER</text>
<path d="M1610 456h-10" />
<text x="1598" y="456" fill="black" stroke-width="0" font-size="10" text-anchor="end" dy="3.66667">CLK_out</text>
</g>
<g stroke="#41619f">
<path d="M1427 388h166" />
<path d="M1593,388 A6.83537,6.83537 1.61957 0,1 1600,395" />
<path d="M1600 395v82" />
<path d="M1600,477 A6.83537,6.83537 1.61957 0,1 1593,484" />
<path d="M1593 484h-166" />
<path d="M1427,484 A6.83537,6.83537 1.61957 0,1 1420,477" />
<path d="M1420 477v-82" />
<path d="M1420,395 A6.83537,6.83537 1.61957 0,1 1427,388" />
<path d="M1650 516v-7h14l7 7l-7 7h-14z" stroke="none" fill="#ddd4d0" />
</g>
<g stroke="#2a5e6f" stroke-width="3">
<path d="M1650 516v-7h14l7 7l-7 7h-14z" />
<text x="1675" y="516" fill="black" stroke-width="0" dy="4.4">DDR</text>
<path d="M1650 536v-7h14l7 7l-7 7h-14z" stroke="none" fill="#ddd4d0" />
<path d="M1650 536v-7h14l7 7l-7 7h-14z" />
<text x="1675" y="536" fill="black" stroke-width="0" dy="4.4">FIXED_IO</text>
<path d="M1117 427h226l3 1l2 1l1 2l1 3v44l-1 3l-1 2l-2 1l-3 1h-226l-3 -1l-2 -1l-1 -2l-1 -3v-44l1 -3l1 -2l2 -1z" stroke="none" fill="#edf6fe" />
<text x="1230" y="425" fill="black" stroke-width="0" text-anchor="middle" dy="-1.6">NOT_0</text>
<text x="1230" y="487" fill="#41619f" stroke-width="0" text-anchor="middle" dy="9.6">Utility Vector Logic</text>
</g>
<g stroke="black" stroke-width="5">
<path d="M1100 456h10" />
<text x="1112" y="456" fill="black" stroke-width="0" font-size="10" dy="3.66667">Op1[0:0]</text>
<path d="M1360 456h-10" />
<text x="1348" y="456" fill="black" stroke-width="0" font-size="10" text-anchor="end" dy="3.66667">Res[0:0]</text>
</g>
<g stroke="#41619f">
<path d="M1117 427h226" />
<path d="M1343,427 A6.83537,6.83537 1.61957 0,1 1350,434" />
<path d="M1350 434v44" />
<path d="M1350,478 A6.83537,6.83537 1.61957 0,1 1343,485" />
<path d="M1343 485h-226" />
<path d="M1117,485 A6.83537,6.83537 1.61957 0,1 1110,478" />
<path d="M1110 478v-44" />
<path d="M1110,434 A6.83537,6.83537 1.61957 0,1 1117,427" />
<path d="M1650 416v-7h14l7 7l-7 7h-14z" stroke="none" fill="#ddd4d0" />
</g>
<g stroke-width="3">
<path d="M1650 416v-7h14l7 7l-7 7h-14z" />
<text x="1675" y="416" fill="black" stroke-width="0" dy="4.4">RGB[2:0]</text>
<path d="M837 28h186l3 1l2 1l1 2l1 3v82l-1 3l-1 2l-2 1l-3 1h-186l-3 -1l-2 -1l-1 -2l-1 -3v-82l1 -3l1 -2l2 -1z" stroke="none" fill="#edf6fe" />
<text x="930" y="26" fill="black" stroke-width="0" text-anchor="middle" dy="-1.6">axi_gpio_0</text>
<text x="930" y="126" fill="#41619f" stroke-width="0" text-anchor="middle" dy="9.6">AXI GPIO</text>
<path d="M820 47h10v18h-10z" stroke="none" fill="#edf6fe" />
</g>
<g stroke="black" stroke-width="3">
<path d="M839 51v10" />
<path d="M834 56h10" />
</g>
<g stroke="black">
<path d="M832 49h14v14h-14z" />
<text x="847" y="56" fill="black" stroke-width="0" font-size="10" dy="3.66667">S_AXI</text>
<path d="M1030 47h10v38h-10z" stroke="none" fill="#edf6fe" />
</g>
<g stroke="black" stroke-width="3">
<path d="M1015 56h10" />
</g>
<g stroke="black">
<path d="M1013 49h14v14h-14z" />
<text x="1013" y="56" fill="black" stroke-width="0" font-size="10" text-anchor="end" dy="3.66667">GPIO</text>
</g>
<g stroke="black" stroke-width="3">
<path d="M1040 76h-10" />
<path d="M1017 71l-8 5l8 5z" stroke="none" fill="black" />
<text x="1008" y="76" fill="black" stroke-width="0" font-size="10" text-anchor="end" dy="3.66667">gpio_io_i[0:0]</text>
<path d="M820 76h10" />
<text x="832" y="76" fill="black" stroke-width="0" font-size="10" dy="3.66667">s_axi_aclk</text>
<circle cx="827" cy="96" r="3" />
<path d="M820 96h4" />
<text x="832" y="96" fill="black" stroke-width="0" font-size="10" dy="3.66667">s_axi_aresetn</text>
<path d="M1040 96h-10" />
<text x="1028" y="96" fill="black" stroke-width="0" font-size="10" text-anchor="end" dy="3.66667">ip2intc_irpt</text>
</g>
<g stroke="#41619f">
<path d="M837 28h186" />
<path d="M1023,28 A6.83537,6.83537 1.61957 0,1 1030,35" />
<path d="M1030 35v82" />
<path d="M1030,117 A6.83537,6.83537 1.61957 0,1 1023,124" />
<path d="M1023 124h-186" />
<path d="M837,124 A6.83537,6.83537 1.61957 0,1 830,117" />
<path d="M830 117v-82" />
<path d="M830,35 A6.83537,6.83537 1.61957 0,1 837,28" />
<path d="M827 378h206l3 1l2 1l1 2l1 3v82l-1 3l-1 2l-2 1l-3 1h-206l-3 -1l-2 -1l-1 -2l-1 -3v-82l1 -3l1 -2l2 -1z" stroke="none" fill="#edf6fe" />
<text x="930" y="376" fill="black" stroke-width="0" text-anchor="middle" dy="-1.6">axi_gpio_1</text>
<text x="930" y="476" fill="#41619f" stroke-width="0" text-anchor="middle" dy="9.6">AXI GPIO</text>
<path d="M810 397h10v18h-10z" stroke="none" fill="#edf6fe" />
</g>
<g stroke="black" stroke-width="3">
<path d="M829 401v10" />
<path d="M824 406h10" />
</g>
<g stroke="black">
<path d="M822 399h14v14h-14z" />
<text x="837" y="406" fill="black" stroke-width="0" font-size="10" dy="3.66667">S_AXI</text>
<path d="M1040 407h10v38h-10z" stroke="none" fill="#edf6fe" />
</g>
<g stroke="black" stroke-width="3">
<path d="M1025 416h10" />
</g>
<g stroke="black">
<path d="M1023 409h14v14h-14z" />
<text x="1023" y="416" fill="black" stroke-width="0" font-size="10" text-anchor="end" dy="3.66667">GPIO</text>
</g>
<g stroke="black" stroke-width="3">
<path d="M1050 436h-10" />
<path d="M1019 431l8 5l-8 5z" stroke="none" fill="black" />
<text x="1018" y="436" fill="black" stroke-width="0" font-size="10" text-anchor="end" dy="3.66667">gpio_io_o[0:0]</text>
<path d="M810 426h10" />
<text x="822" y="426" fill="black" stroke-width="0" font-size="10" dy="3.66667">s_axi_aclk</text>
<circle cx="817" cy="446" r="3" />
<path d="M810 446h4" />
<text x="822" y="446" fill="black" stroke-width="0" font-size="10" dy="3.66667">s_axi_aresetn</text>
</g>
<g stroke="#41619f">
<path d="M827 378h206" />
<path d="M1033,378 A6.83537,6.83537 1.61957 0,1 1040,385" />
<path d="M1040 385v82" />
<path d="M1040,467 A6.83537,6.83537 1.61957 0,1 1033,474" />
<path d="M1033 474h-206" />
<path d="M827,474 A6.83537,6.83537 1.61957 0,1 820,467" />
<path d="M820 467v-82" />
<path d="M820,385 A6.83537,6.83537 1.61957 0,1 827,378" />
<path d="M867 188h126l3 1l2 1l1 2l1 3v102l-1 3l-1 2l-2 1l-3 1h-126l-3 -1l-2 -1l-1 -2l-1 -3v-102l1 -3l1 -2l2 -1z" stroke="none" fill="#fbe4d3" />
<text x="930" y="186" fill="#fd862b" stroke-width="0" text-anchor="middle" dy="-1.6">axi_intc_0</text>
<text x="930" y="306" fill="#fd862b" stroke-width="0" text-anchor="middle" dy="9.6">AXI Interrupt Controller</text>
<path d="M850 207h10v18h-10z" stroke="none" fill="#fbe4d3" />
</g>
<g stroke="#fd862b" stroke-width="3">
<path d="M869 211v10" />
<path d="M864 216h10" />
</g>
<g stroke="#fd862b">
<path d="M862 209h14v14h-14z" />
<text x="877" y="216" fill="#fd862b" stroke-width="0" font-size="10" dy="3.66667">s_axi</text>
<path d="M850 207h10v18h-10z" stroke="none" fill="#fbe4d3" fill-opacity="0.835294" />
</g>
<g stroke="#fa6e03" stroke-width="4">
<path d="M851 237h10" />
</g>
<g stroke="#fd9749" stroke-width="4">
<path d="M850 236h10" />
</g>
<g stroke="#fd862b" stroke-width="3">
<path d="M850 236h10" />
<text x="862" y="236" fill="#fd862b" stroke-width="0" font-size="10" dy="3.66667">s_axi_aclk</text>
</g>
<g stroke="#fa6e03" stroke-width="4">
<circle cx="858" cy="257" r="3" />
<path d="M851 257h4" />
</g>
<g stroke="#fd9749" stroke-width="4">
<circle cx="857" cy="256" r="3" />
<path d="M850 256h4" />
</g>
<g stroke="#fd862b" stroke-width="3">
<circle cx="857" cy="256" r="3" />
<path d="M850 256h4" />
<text x="862" y="256" fill="#fd862b" stroke-width="0" font-size="10" dy="3.66667">s_axi_aresetn</text>
</g>
<g stroke="#fa6e03" stroke-width="6">
<path d="M851 277h10" />
</g>
<g stroke="#fd9749" stroke-width="6">
<path d="M850 276h10" />
</g>
<g stroke="#fd862b" stroke-width="5">
<path d="M850 276h10" />
<text x="862" y="276" fill="#fd862b" stroke-width="0" font-size="10" dy="3.66667">intr[0:0]</text>
</g>
<g stroke="#fa6e03" stroke-width="4">
<path d="M1011 247h-10" />
</g>
<g stroke="#fd9749" stroke-width="4">
<path d="M1010 246h-10" />
</g>
<g stroke="#fd862b" stroke-width="3">
<path d="M1010 246h-10" />
<text x="998" y="246" fill="#fd862b" stroke-width="0" font-size="10" text-anchor="end" dy="3.66667">irq</text>
</g>
<g stroke="#fa6e03" stroke-width="2">
<path d="M868 189h126" />
<path d="M994,189 A6.83537,6.83537 1.61957 0,1 1001,196" />
<path d="M1001 196v102" />
<path d="M1001,298 A6.83537,6.83537 1.61957 0,1 994,305" />
<path d="M994 305h-126" />
<path d="M868,305 A6.83537,6.83537 1.61957 0,1 861,298" />
<path d="M861 298v-102" />
<path d="M861,196 A6.83537,6.83537 1.61957 0,1 868,189" />
</g>
<g stroke="#fd9749" stroke-width="2">
<path d="M867 188h126" />
<path d="M993,188 A6.83537,6.83537 1.61957 0,1 1000,195" />
<path d="M1000 195v102" />
<path d="M1000,297 A6.83537,6.83537 1.61957 0,1 993,304" />
<path d="M993 304h-126" />
<path d="M867,304 A6.83537,6.83537 1.61957 0,1 860,297" />
<path d="M860 297v-102" />
<path d="M860,195 A6.83537,6.83537 1.61957 0,1 867,188" />
</g>
<g stroke="#fd862b">
<path d="M867 188h126" />
<path d="M993,188 A6.83537,6.83537 1.61957 0,1 1000,195" />
<path d="M1000 195v102" />
<path d="M1000,297 A6.83537,6.83537 1.61957 0,1 993,304" />
<path d="M993 304h-126" />
<path d="M867,304 A6.83537,6.83537 1.61957 0,1 860,297" />
<path d="M860 297v-102" />
<path d="M860,195 A6.83537,6.83537 1.61957 0,1 867,188" />
<path d="M1650 436v-7h14l7 7l-7 7h-14z" stroke="none" fill="#ddd4d0" />
</g>
<g>
<path d="M1650 436v-7h14l7 7l-7 7h-14z" />
<text x="1675" y="436" fill="black" stroke-width="0" dy="4.4">BUZZER</text>
<path d="M57 488h326l3 1l2 1l1 2l1 3v122l-1 3l-1 2l-2 1l-3 1h-326l-3 -1l-2 -1l-1 -2l-1 -3v-122l1 -3l1 -2l2 -1z" stroke="none" fill="#edf6fe" />
<text x="220" y="486" fill="black" stroke-width="0" text-anchor="middle" dy="-1.6">processing_system7_0</text>
<text x="220" y="626" fill="#41619f" stroke-width="0" text-anchor="middle" dy="9.6">ZYNQ7 Processing System</text>
<path d="M390 507h10v18h-10z" stroke="none" fill="#edf6fe" />
</g>
<g stroke="black" stroke-width="3">
<path d="M380 511v10" />
<path d="M375 516h10" />
</g>
<g stroke="black">
<path d="M373 509h14v14h-14z" />
<text x="373" y="516" fill="black" stroke-width="0" font-size="10" text-anchor="end" dy="3.66667">DDR</text>
<path d="M390 527h10v18h-10z" stroke="none" fill="#edf6fe" />
</g>
<g stroke="black" stroke-width="3">
<path d="M380 531v10" />
<path d="M375 536h10" />
</g>
<g stroke="black">
<path d="M373 529h14v14h-14z" />
<text x="373" y="536" fill="black" stroke-width="0" font-size="10" text-anchor="end" dy="3.66667">FIXED_IO</text>
<path d="M390 547h10v18h-10z" stroke="none" fill="#edf6fe" />
</g>
<g stroke="black" stroke-width="3">
<path d="M380 551v10" />
<path d="M375 556h10" />
</g>
<g stroke="black">
<path d="M373 549h14v14h-14z" />
<text x="373" y="556" fill="black" stroke-width="0" font-size="10" text-anchor="end" dy="3.66667">M_AXI_GP0</text>
</g>
<g stroke="black" stroke-width="3">
<path d="M40 546h10" />
<text x="52" y="546" fill="black" stroke-width="0" font-size="10" dy="3.66667">M_AXI_GP0_ACLK</text>
</g>
<g stroke="black" stroke-width="5">
<path d="M40 566h10" />
<text x="52" y="566" fill="black" stroke-width="0" font-size="10" dy="3.66667">IRQ_F2P[0:0]</text>
</g>
<g stroke="black" stroke-width="3">
<path d="M400 576h-10" />
<text x="388" y="576" fill="black" stroke-width="0" font-size="10" text-anchor="end" dy="3.66667">FCLK_CLK0</text>
<circle cx="393" cy="596" r="3" />
<path d="M400 596h-4" />
<text x="388" y="596" fill="black" stroke-width="0" font-size="10" text-anchor="end" dy="3.66667">FCLK_RESET0_N</text>
</g>
<g stroke="#41619f">
<path d="M57 488h326" />
<path d="M383,488 A6.83537,6.83537 1.61957 0,1 390,495" />
<path d="M390 495v122" />
<path d="M390,617 A6.83537,6.83537 1.61957 0,1 383,624" />
<path d="M383 624h-326" />
<path d="M57,624 A6.83537,6.83537 1.61957 0,1 50,617" />
<path d="M50 617v-122" />
<path d="M50,495 A6.83537,6.83537 1.61957 0,1 57,488" />
<path d="M487 88h226l3 1l2 1l1 2l1 3v242l-1 3l-1 2l-2 1l-3 1h-226l-3 -1l-2 -1l-1 -2l-1 -3v-242l1 -3l1 -2l2 -1z" stroke="none" fill="#edf6fe" />
<text x="600" y="86" fill="black" stroke-width="0" text-anchor="middle" dy="-1.6">ps7_0_axi_periph</text>
<text x="600" y="346" fill="#41619f" stroke-width="0" text-anchor="middle" dy="9.6">AXI Interconnect</text>
</g>
<g stroke="#41619f" stroke-width="3">
<path d="M491 93v12" />
<path d="M485 99h12" />
</g>
<g stroke="#41619f">
<path d="M483 91h16v16h-16z" />
<path d="M470 107h10v18h-10z" stroke="none" fill="#edf6fe" />
</g>
<g stroke="black" stroke-width="3">
<path d="M489 111v10" />
<path d="M484 116h10" />
</g>
<g stroke="black">
<path d="M482 109h14v14h-14z" />
<text x="497" y="116" fill="black" stroke-width="0" font-size="10" dy="3.66667">S00_AXI</text>
<path d="M720 187h10v18h-10z" stroke="none" fill="#edf6fe" />
</g>
<g stroke="black" stroke-width="3">
<path d="M710 191v10" />
<path d="M705 196h10" />
</g>
<g stroke="black">
<path d="M703 189h14v14h-14z" />
<text x="703" y="196" fill="black" stroke-width="0" font-size="10" text-anchor="end" dy="3.66667">M00_AXI</text>
<path d="M720 207h10v18h-10z" stroke="none" fill="#edf6fe" />
</g>
<g stroke="black" stroke-width="3">
<path d="M710 211v10" />
<path d="M705 216h10" />
</g>
<g stroke="black">
<path d="M703 209h14v14h-14z" />
<text x="703" y="216" fill="black" stroke-width="0" font-size="10" text-anchor="end" dy="3.66667">M01_AXI</text>
<path d="M720 227h10v18h-10z" stroke="none" fill="#edf6fe" />
</g>
<g stroke="black" stroke-width="3">
<path d="M710 231v10" />
<path d="M705 236h10" />
</g>
<g stroke="black">
<path d="M703 229h14v14h-14z" />
<text x="703" y="236" fill="black" stroke-width="0" font-size="10" text-anchor="end" dy="3.66667">M02_AXI</text>
</g>
<g stroke="black" stroke-width="3">
<path d="M470 136h10" />
<text x="482" y="136" fill="black" stroke-width="0" font-size="10" dy="3.66667">ACLK</text>
<path d="M470 156h10" />
<text x="482" y="156" fill="black" stroke-width="0" font-size="10" dy="3.66667">ARESETN</text>
<path d="M470 176h10" />
<text x="482" y="176" fill="black" stroke-width="0" font-size="10" dy="3.66667">S00_ACLK</text>
<path d="M470 196h10" />
<text x="482" y="196" fill="black" stroke-width="0" font-size="10" dy="3.66667">S00_ARESETN</text>
<path d="M470 216h10" />
<text x="482" y="216" fill="black" stroke-width="0" font-size="10" dy="3.66667">M00_ACLK</text>
<path d="M470 236h10" />
<text x="482" y="236" fill="black" stroke-width="0" font-size="10" dy="3.66667">M00_ARESETN</text>
<path d="M470 256h10" />
<text x="482" y="256" fill="black" stroke-width="0" font-size="10" dy="3.66667">M01_ACLK</text>
<path d="M470 276h10" />
<text x="482" y="276" fill="black" stroke-width="0" font-size="10" dy="3.66667">M01_ARESETN</text>
<path d="M470 296h10" />
<text x="482" y="296" fill="black" stroke-width="0" font-size="10" dy="3.66667">M02_ACLK</text>
<path d="M470 316h10" />
<text x="482" y="316" fill="black" stroke-width="0" font-size="10" dy="3.66667">M02_ARESETN</text>
</g>
<g stroke="#41619f">
<path d="M487 88h226" />
<path d="M713,88 A6.83537,6.83537 1.61957 0,1 720,95" />
<path d="M720 95v242" />
<path d="M720,337 A6.83537,6.83537 1.61957 0,1 713,344" />
<path d="M713 344h-226" />
<path d="M487,344 A6.83537,6.83537 1.61957 0,1 480,337" />
<path d="M480 337v-242" />
<path d="M480,95 A6.83537,6.83537 1.61957 0,1 487,88" />
<path d="M87 268h266l3 1l2 1l1 2l1 3v122l-1 3l-1 2l-2 1l-3 1h-266l-3 -1l-2 -1l-1 -2l-1 -3v-122l1 -3l1 -2l2 -1z" stroke="none" fill="#edf6fe" />
<text x="220" y="266" fill="black" stroke-width="0" text-anchor="middle" dy="-1.6">rst_ps7_0_100M</text>
<text x="220" y="406" fill="#41619f" stroke-width="0" text-anchor="middle" dy="9.6">Processor System Reset</text>
</g>
<g stroke="black" stroke-width="3">
<path d="M70 296h10" />
<text x="82" y="296" fill="black" stroke-width="0" font-size="10" dy="3.66667">slowest_sync_clk</text>
<circle cx="77" cy="316" r="3" />
<path d="M70 316h4" />
<text x="82" y="316" fill="black" stroke-width="0" font-size="10" dy="3.66667">ext_reset_in</text>
<circle cx="77" cy="336" r="3" />
<path d="M70 336h4" />
<text x="82" y="336" fill="black" stroke-width="0" font-size="10" dy="3.66667">aux_reset_in</text>
<path d="M70 356h10" />
<text x="82" y="356" fill="black" stroke-width="0" font-size="10" dy="3.66667">mb_debug_sys_rst</text>
<path d="M70 376h10" />
<text x="82" y="376" fill="black" stroke-width="0" font-size="10" dy="3.66667">dcm_locked</text>
<path d="M370 296h-10" />
<text x="358" y="296" fill="black" stroke-width="0" font-size="10" text-anchor="end" dy="3.66667">mb_reset</text>
</g>
<g stroke="black" stroke-width="5">
<path d="M370 316h-10" />
<text x="358" y="316" fill="black" stroke-width="0" font-size="10" text-anchor="end" dy="3.66667">bus_struct_reset[0:0]</text>
<path d="M370 336h-10" />
<text x="358" y="336" fill="black" stroke-width="0" font-size="10" text-anchor="end" dy="3.66667">peripheral_reset[0:0]</text>
<circle cx="363" cy="356" r="3" />
<path d="M370 356h-4" />
<text x="358" y="356" fill="black" stroke-width="0" font-size="10" text-anchor="end" dy="3.66667">interconnect_aresetn[0:0]</text>
<circle cx="363" cy="376" r="3" />
<path d="M370 376h-4" />
<text x="358" y="376" fill="black" stroke-width="0" font-size="10" text-anchor="end" dy="3.66667">peripheral_aresetn[0:0]</text>
</g>
<g stroke="#41619f">
<path d="M87 268h266" />
<path d="M353,268 A6.83537,6.83537 1.61957 0,1 360,275" />
<path d="M360 275v122" />
<path d="M360,397 A6.83537,6.83537 1.61957 0,1 353,404" />
<path d="M353 404h-266" />
<path d="M87,404 A6.83537,6.83537 1.61957 0,1 80,397" />
<path d="M80 397v-122" />
<path d="M80,275 A6.83537,6.83537 1.61957 0,1 87,268" />
</g>
<g>
<path d="M1610 436h40" />
<path d="M1040 76h40v280h550v100h-20" />
</g>
<g stroke-width="3">
<path d="M1610 416h40" />
<path d="M1360 456h50" />
<path d="M1050 436h20v20h30" />
</g>
<g stroke="#41619f" stroke-width="4">
<path d="M400 516h1250" />
</g>
<g>
<path d="M70 296h-60v250h30" />
<path d="M10 456h430" />
<path d="M440 296h30" />
<path d="M440 256h30" />
<path d="M440 216h30" />
<path d="M440 176h30" />
<path d="M438 544h5v5h-5z" stroke="none" fill="#102235" />
<path d="M438 454h5v5h-5z" stroke="none" fill="#102235" />
<path d="M438 294h5v5h-5z" stroke="none" fill="#102235" />
<path d="M438 254h5v5h-5z" stroke="none" fill="#102235" />
<path d="M438 214h5v5h-5z" stroke="none" fill="#102235" />
<path d="M438 174h5v5h-5z" stroke="none" fill="#102235" />
<path d="M8 454h5v5h-5z" stroke="none" fill="#102235" />
<path d="M400 576h40v-440h30" />
<path d="M440 546h320v-470h60" />
<path d="M760 426h50" />
<path d="M760 346h630v70h20" />
<path d="M760 236h90" />
<path d="M758 424h5v5h-5z" stroke="none" fill="#102235" />
<path d="M758 344h5v5h-5z" stroke="none" fill="#102235" />
<path d="M758 234h5v5h-5z" stroke="none" fill="#102235" />
<path d="M70 316h-50v120h400v160h-20" />
</g>
<g stroke="#41619f" stroke-width="4">
<path d="M400 536h1250" />
<path d="M400 556h30v-440h40" />
<path d="M730 196h20v-140h70" />
<path d="M730 216h120" />
<path d="M730 236h20v170h60" />
</g>
<g stroke-width="3">
<path d="M470 156h-20v220h330" />
<path d="M780 446h30" />
<path d="M777 253h7v7h-7z" stroke="none" fill="#102235" />
<path d="M777 373h7v7h-7z" stroke="none" fill="#102235" />
<path d="M777 443h7v7h-7z" stroke="none" fill="#102235" />
<path d="M450 196h20" />
<path d="M450 236h20" />
<path d="M450 276h20" />
<path d="M450 316h20" />
<path d="M370 376h80" />
<path d="M447 193h7v7h-7z" stroke="none" fill="#102235" />
<path d="M447 233h7v7h-7z" stroke="none" fill="#102235" />
<path d="M447 273h7v7h-7z" stroke="none" fill="#102235" />
<path d="M447 313h7v7h-7z" stroke="none" fill="#102235" />
<path d="M447 373h7v7h-7z" stroke="none" fill="#102235" />
<path d="M820 96h-40v410h300v-110h300v40h30" />
<path d="M780 256h70" />
</g>
<g stroke="#fa6e03" stroke-width="2">
<path d="M851 277h-60v-120h280v-60h-30" />
</g>
<g stroke="#fd9749" stroke-width="2">
<path d="M850 276h-60v-120h280v-60h-30" />
</g>
<g stroke="#fd862b">
<path d="M850 276h-60v-120h280v-60h-30" />
</g>
<g stroke="#fa6e03" stroke-width="2">
<path d="M41 567h-20v-120h750v-110h300v-90h-60" />
</g>
<g stroke="#fd9749" stroke-width="2">
<path d="M40 566h-20v-120h750v-110h300v-90h-60" />
</g>
<g stroke="#fd862b">
<path d="M40 566h-20v-120h750v-110h300v-90h-60" />
</g>
<g stroke="#41619f" stroke-width="4">
<path d="M854 298v12h12" />
<path d="M1006 298v12h-12" />
<path d="M854 194v-12h12" />
<path d="M994 182h12v12" />
</g>
</g>
</svg>
